<svg width="144" height="32" viewBox="0 0 144 32" fill="none" xmlns="http://www.w3.org/2000/svg">
<g clip-path="url(#clip0_34_337)">
<rect width="32" height="32" rx="16" fill="#3900AD"/>
<path d="M11.3038 9.64982H10.7704C9.75829 9.64982 9.2054 10.2205 9.2054 11.3621V16.8679C9.2054 18.2854 8.72658 18.7829 7.60332 18.7829C6.71977 18.7829 6.00184 18.3959 5.43088 17.6963C5.37547 17.6229 4.21606 18.1749 4.21606 19.5378C4.21606 21.0107 5.59621 21.9132 8.15681 21.9132C11.2679 21.9132 12.9076 20.3479 12.9076 16.9233V11.3621C12.9058 10.222 12.3535 9.64982 11.3038 9.64982ZM23.7038 12.3381C20.6836 12.3381 18.6768 14.2531 18.6768 17.1085C18.6768 20.0365 20.6095 21.915 23.6481 21.915C26.6673 21.915 28.6555 20.0365 28.6555 17.1274C28.6573 14.2531 26.6866 12.3381 23.7038 12.3381ZM23.6667 19.206C22.4878 19.206 21.678 18.3408 21.678 17.107C21.678 15.8922 22.5076 15.0264 23.6667 15.0264C24.8258 15.0264 25.6552 15.8922 25.6552 17.1257C25.6555 18.3221 24.8087 19.206 23.667 19.206H23.6667ZM16.1251 12.43H15.7562C14.8546 12.43 14.1734 12.8531 14.1734 14.1426V20.0347C14.1734 21.3423 14.8365 21.7476 15.7935 21.7476H16.1621C17.0644 21.7476 17.7085 21.3052 17.7085 20.0347V14.1426C17.7085 12.8169 17.083 12.43 16.1251 12.43ZM15.9227 8.15886C14.7808 8.15886 14.0629 8.8036 14.0629 9.81634C14.0629 10.8469 14.7998 11.4913 15.9778 11.4913C17.1195 11.4913 17.8377 10.8469 17.8377 9.81634C17.8377 8.78582 17.1011 8.15886 15.9227 8.15886Z" fill="white"/>
</g>
<path d="M43.6 12.802H40.144V9.562H50.998V12.802H47.524V22H43.6V12.802ZM54.9792 22.234C53.9352 22.234 53.0352 22.036 52.2792 21.64C51.5352 21.244 50.9652 20.68 50.5692 19.948C50.1852 19.204 49.9932 18.328 49.9932 17.32C49.9932 16.312 50.1912 15.442 50.5872 14.71C50.9832 13.978 51.5532 13.414 52.2972 13.018C53.0532 12.622 53.9472 12.424 54.9792 12.424C56.0112 12.424 56.8992 12.628 57.6432 13.036C58.3992 13.432 58.9692 13.996 59.3532 14.728C59.7492 15.46 59.9472 16.318 59.9472 17.302C59.9472 18.31 59.7492 19.186 59.3532 19.93C58.9692 20.674 58.4052 21.244 57.6612 21.64C56.9172 22.036 56.0232 22.234 54.9792 22.234ZM54.9792 19.642C55.2792 19.642 55.5312 19.564 55.7352 19.408C55.9392 19.24 56.0892 18.988 56.1852 18.652C56.2932 18.316 56.3472 17.872 56.3472 17.32C56.3472 16.768 56.2932 16.324 56.1852 15.988C56.0772 15.652 55.9212 15.406 55.7172 15.25C55.5132 15.094 55.2612 15.016 54.9612 15.016C54.6732 15.016 54.4272 15.094 54.2232 15.25C54.0192 15.406 53.8632 15.658 53.7552 16.006C53.6472 16.342 53.5932 16.78 53.5932 17.32C53.5932 17.848 53.6472 18.286 53.7552 18.634C53.8632 18.982 54.0192 19.24 54.2232 19.408C54.4272 19.564 54.6792 19.642 54.9792 19.642ZM61.0759 12.658H64.5319V13.846H64.5679C64.8919 13.354 65.2939 12.994 65.7739 12.766C66.2539 12.538 66.8119 12.424 67.4479 12.424C68.1319 12.424 68.7079 12.562 69.1759 12.838C69.6559 13.102 70.0159 13.486 70.2559 13.99C70.4959 14.482 70.6159 15.082 70.6159 15.79V22H67.0519V16.69C67.0519 16.162 66.9559 15.772 66.7639 15.52C66.5719 15.268 66.2779 15.142 65.8819 15.142C65.4739 15.142 65.1619 15.268 64.9459 15.52C64.7419 15.772 64.6399 16.162 64.6399 16.69V22H61.0759V12.658ZM76.6874 22.234C75.7274 22.234 74.8694 22.048 74.1134 21.676C73.3694 21.304 72.7814 20.752 72.3494 20.02C71.9294 19.288 71.7194 18.4 71.7194 17.356C71.7194 16.372 71.9234 15.514 72.3314 14.782C72.7394 14.038 73.3154 13.462 74.0594 13.054C74.8154 12.634 75.6974 12.424 76.7054 12.424C77.7974 12.424 78.7214 12.64 79.4774 13.072C80.2334 13.492 80.8034 14.11 81.1874 14.926C81.5834 15.73 81.7814 16.696 81.7814 17.824V18.13H74.7074V16.276H78.3794C78.3794 15.952 78.3134 15.676 78.1814 15.448C78.0494 15.208 77.8634 15.022 77.6234 14.89C77.3954 14.758 77.1194 14.692 76.7954 14.692C76.4714 14.692 76.1894 14.752 75.9494 14.872C75.7214 14.992 75.5294 15.172 75.3734 15.412C75.2294 15.64 75.1334 15.928 75.0854 16.276V18.13C75.0974 18.514 75.1754 18.844 75.3194 19.12C75.4634 19.396 75.6674 19.606 75.9314 19.75C76.2074 19.894 76.5314 19.966 76.9034 19.966C77.2754 19.966 77.5754 19.906 77.8034 19.786C78.0434 19.666 78.2174 19.474 78.3254 19.21H81.5834C81.2954 20.194 80.7374 20.944 79.9094 21.46C79.0814 21.976 78.0074 22.234 76.6874 22.234ZM92.4483 22.288C91.2723 22.288 90.2643 22.132 89.4243 21.82C88.5843 21.496 87.9423 21.034 87.4983 20.434C87.0663 19.822 86.8503 19.09 86.8503 18.238H90.7923C90.7923 18.694 90.9363 19.036 91.2243 19.264C91.5243 19.48 91.9623 19.588 92.5383 19.588C92.8863 19.588 93.1803 19.552 93.4203 19.48C93.6723 19.396 93.8583 19.276 93.9783 19.12C94.1103 18.952 94.1763 18.754 94.1763 18.526C94.1763 18.322 94.1103 18.148 93.9783 18.004C93.8583 17.86 93.6663 17.734 93.4023 17.626C93.1503 17.518 92.7903 17.392 92.3223 17.248L90.6843 16.798C89.9163 16.57 89.2803 16.294 88.7763 15.97C88.2723 15.634 87.8943 15.238 87.6423 14.782C87.3903 14.326 87.2643 13.792 87.2643 13.18C87.2643 12.352 87.4803 11.65 87.9123 11.074C88.3443 10.486 88.9503 10.042 89.7303 9.742C90.5223 9.43 91.4463 9.274 92.5023 9.274C93.5823 9.274 94.4943 9.424 95.2383 9.724C95.9943 10.024 96.5643 10.45 96.9483 11.002C97.3323 11.554 97.5483 12.22 97.5963 13H93.9063C93.8943 12.772 93.8283 12.58 93.7083 12.424C93.6003 12.268 93.4383 12.148 93.2223 12.064C93.0063 11.98 92.7363 11.938 92.4123 11.938C92.1243 11.938 91.8783 11.968 91.6743 12.028C91.4703 12.088 91.3143 12.19 91.2063 12.334C91.0983 12.478 91.0443 12.646 91.0443 12.838C91.0443 13.042 91.0923 13.21 91.1883 13.342C91.2843 13.462 91.4583 13.57 91.7103 13.666C91.9623 13.762 92.3283 13.876 92.8083 14.008L93.7623 14.242C94.8903 14.542 95.7663 14.872 96.3903 15.232C97.0263 15.592 97.4703 16.006 97.7223 16.474C97.9743 16.942 98.1003 17.512 98.1003 18.184C98.1003 19.06 97.8723 19.804 97.4163 20.416C96.9723 21.028 96.3243 21.496 95.4723 21.82C94.6323 22.132 93.6243 22.288 92.4483 22.288ZM103.581 22.162C102.801 22.162 102.147 22.048 101.619 21.82C101.103 21.58 100.707 21.19 100.431 20.65C100.155 20.11 100.017 19.384 100.017 18.472V15.016H98.2891V12.658H100.017V9.814H103.581V12.658H105.615V15.016H103.581V17.95C103.581 18.298 103.617 18.574 103.689 18.778C103.761 18.97 103.875 19.114 104.031 19.21C104.199 19.306 104.433 19.354 104.733 19.354C104.925 19.354 105.093 19.348 105.237 19.336C105.381 19.312 105.507 19.288 105.615 19.264V21.946C105.423 22.006 105.159 22.054 104.823 22.09C104.487 22.138 104.073 22.162 103.581 22.162ZM110.001 22.234C108.933 22.234 108.129 21.952 107.589 21.388C107.049 20.824 106.779 19.924 106.779 18.688V12.658H110.343V17.842C110.343 18.37 110.439 18.76 110.631 19.012C110.835 19.252 111.135 19.372 111.531 19.372C111.927 19.372 112.227 19.252 112.431 19.012C112.647 18.76 112.755 18.37 112.755 17.842V12.658H116.319V22H112.899V20.812H112.863C112.515 21.292 112.107 21.652 111.639 21.892C111.183 22.12 110.637 22.234 110.001 22.234ZM121.257 22.234C120.441 22.234 119.745 22.024 119.169 21.604C118.605 21.184 118.179 20.602 117.891 19.858C117.603 19.102 117.459 18.238 117.459 17.266C117.459 16.282 117.603 15.43 117.891 14.71C118.191 13.978 118.623 13.414 119.187 13.018C119.751 12.622 120.441 12.424 121.257 12.424C121.797 12.424 122.283 12.538 122.715 12.766C123.159 12.994 123.525 13.318 123.813 13.738H123.849V9.148H127.413V22H123.975V20.902H123.939C123.615 21.382 123.237 21.724 122.805 21.928C122.385 22.132 121.869 22.234 121.257 22.234ZM122.499 19.642C122.823 19.642 123.093 19.558 123.309 19.39C123.525 19.222 123.687 18.964 123.795 18.616C123.915 18.268 123.975 17.836 123.975 17.32C123.975 16.804 123.915 16.378 123.795 16.042C123.675 15.706 123.507 15.454 123.291 15.286C123.075 15.106 122.805 15.016 122.481 15.016C122.193 15.016 121.941 15.1 121.725 15.268C121.509 15.436 121.341 15.694 121.221 16.042C121.113 16.378 121.059 16.804 121.059 17.32C121.059 17.836 121.113 18.268 121.221 18.616C121.341 18.952 121.503 19.21 121.707 19.39C121.923 19.558 122.187 19.642 122.499 19.642ZM128.91 12.658H132.474V22H128.91V12.658ZM130.692 11.758C130.296 11.758 129.954 11.686 129.666 11.542C129.378 11.398 129.162 11.2 129.018 10.948C128.874 10.696 128.802 10.402 128.802 10.066C128.802 9.73 128.874 9.436 129.018 9.184C129.162 8.932 129.378 8.734 129.666 8.59C129.966 8.434 130.314 8.356 130.71 8.356C131.106 8.356 131.442 8.434 131.718 8.59C132.006 8.734 132.222 8.932 132.366 9.184C132.51 9.436 132.582 9.73 132.582 10.066C132.582 10.402 132.51 10.696 132.366 10.948C132.222 11.2 132.006 11.398 131.718 11.542C131.43 11.686 131.088 11.758 130.692 11.758ZM138.598 22.234C137.554 22.234 136.654 22.036 135.898 21.64C135.154 21.244 134.584 20.68 134.188 19.948C133.804 19.204 133.612 18.328 133.612 17.32C133.612 16.312 133.81 15.442 134.206 14.71C134.602 13.978 135.172 13.414 135.916 13.018C136.672 12.622 137.566 12.424 138.598 12.424C139.63 12.424 140.518 12.628 141.262 13.036C142.018 13.432 142.588 13.996 142.972 14.728C143.368 15.46 143.566 16.318 143.566 17.302C143.566 18.31 143.368 19.186 142.972 19.93C142.588 20.674 142.024 21.244 141.28 21.64C140.536 22.036 139.642 22.234 138.598 22.234ZM138.598 19.642C138.898 19.642 139.15 19.564 139.354 19.408C139.558 19.24 139.708 18.988 139.804 18.652C139.912 18.316 139.966 17.872 139.966 17.32C139.966 16.768 139.912 16.324 139.804 15.988C139.696 15.652 139.54 15.406 139.336 15.25C139.132 15.094 138.88 15.016 138.58 15.016C138.292 15.016 138.046 15.094 137.842 15.25C137.638 15.406 137.482 15.658 137.374 16.006C137.266 16.342 137.212 16.78 137.212 17.32C137.212 17.848 137.266 18.286 137.374 18.634C137.482 18.982 137.638 19.24 137.842 19.408C138.046 19.564 138.298 19.642 138.598 19.642Z" fill="white"/>
<defs>
<clipPath id="clip0_34_337">
<path d="M0 16C0 7.16344 7.16344 0 16 0V0C24.8366 0 32 7.16344 32 16V16C32 24.8366 24.8366 32 16 32V32C7.16344 32 0 24.8366 0 16V16Z" fill="white"/>
</clipPath>
</defs>
</svg>
